HIERARCHY
ROOT hip
{
	OFFSET 0.000000 0.000000 0.000000 
	CHANNELS 6 Xposition Yposition Zposition Xrotation Zrotation Yrotation
	JOINT abdomen
	{
		OFFSET 0.000000 3.402643 0.000000 
		CHANNELS 3 Xrotation Zrotation Yrotation
		JOINT chest
		{
			OFFSET 0.000000 8.438565 -0.680529 
			CHANNELS 3 Xrotation Zrotation Yrotation
			JOINT neck
			{
				OFFSET 0.000000 10.207942 -0.272212 
				CHANNELS 3 Xrotation Zrotation Yrotation
				JOINT head
				{
					OFFSET 0.000000 3.130431 0.000000 
					CHANNELS 3 Xrotation Zrotation Yrotation
					End Site
					{
						OFFSET 0.000000 3.130435 0.000000 
					}
				}
			}
			JOINT lCollar
			{
				OFFSET 3.470700 6.669187 -0.816635 
				CHANNELS 3 Yrotation Zrotation Xrotation
				JOINT lShldr
				{
					OFFSET 3.198488 0.000000 0.000000 
					CHANNELS 3 Zrotation Yrotation Xrotation
					JOINT lForeArm
					{
						OFFSET 10.139888 0.000000 0.000000 
						CHANNELS 3 Yrotation Zrotation Xrotation
						JOINT lHand
						{
							OFFSET 8.370511 0.000000 0.000000 
							CHANNELS 3 Zrotation Yrotation Xrotation
							End Site
							{
								OFFSET 4.083176 0.000000 0.000000 
							}
						}
					}
				}
			}
			JOINT rCollar
			{
				OFFSET -3.470700 6.669187 -0.816635 
				CHANNELS 3 Yrotation Zrotation Xrotation
				JOINT rShldr
				{
					OFFSET -3.198488 0.000000 0.000000 
					CHANNELS 3 Zrotation Yrotation Xrotation
					JOINT rForeArm
					{
						OFFSET -10.139888 0.000000 0.000000 
						CHANNELS 3 Yrotation Zrotation Xrotation
						JOINT rHand
						{
							OFFSET -8.370511 0.000000 0.000000 
							CHANNELS 3 Zrotation Yrotation Xrotation
							End Site
							{
								OFFSET -4.083176 0.000000 0.000000 
							}
						}
					}
				}
			}
		}
	}
	JOINT lThigh
	{
		OFFSET 5.308129 -1.633274 1.361059 
		CHANNELS 3 Xrotation Zrotation Yrotation
		JOINT lShin
		{
			OFFSET -2.041588 -20.007561 0.000000 
			CHANNELS 3 Xrotation Zrotation Yrotation
			JOINT lFoot
			{
				OFFSET 0.000000 -19.190928 -1.224953 
				CHANNELS 3 Xrotation Yrotation Zrotation
				End Site
				{
					OFFSET 0.000000 -2.449906 4.627600 
				}
			}
		}
	}
	JOINT rThigh
	{
		OFFSET -5.308129 -1.633274 1.361059 
		CHANNELS 3 Xrotation Zrotation Yrotation
		JOINT rShin
		{
			OFFSET 2.041588 -20.007561 0.000000 
			CHANNELS 3 Xrotation Zrotation Yrotation
			JOINT rFoot
			{
				OFFSET 0.000000 -19.190928 -1.224953 
				CHANNELS 3 Xrotation Yrotation Zrotation
				End Site
				{
					OFFSET 0.000000 -2.449906 4.627600 
				}
			}
		}
	}
}
MOTION
Frames: 11
Frame Time: 0.033333
4.275288 42.360466 65.802208 -4.228463 3.681594 -159.256958 17.285156 5.195312 -4.872163 -10.644531 0.585938 -5.439453 -13.740235 -0.634766 -7.060547 21.679688 4.404297 -6.805891 -2.138672 9.042968 0.332031 -91.005859 -32.734371 65.268150 -53.203125 -3.505859 -45.575573 20.449217 -0.126953 -0.117188 7.373047 0.957031 -0.117351 71.396484 29.130859 16.459833 64.433594 3.320312 -41.582031 -14.638672 -11.865233 2.546822 -3.876643 12.399549 4.554581 38.419945 -0.750446 -2.620885 -36.642773 11.789947 1.848401 -41.734375 -15.779257 -8.717614 50.184334 -0.009845 2.854939 -12.567995 5.632792 8.134302 
4.135891 42.186153 65.411072 -3.691406 3.867188 -160.302078 16.220703 4.960938 -5.301889 -10.810547 0.761719 -5.790886 -11.308593 0.507813 -6.298732 21.503906 3.710938 -6.112649 -2.324219 10.273438 0.400391 -90.361328 -32.792973 61.830650 -56.240234 -3.564453 -49.755859 20.800781 -0.126953 -0.146484 6.494141 -0.810547 -0.078125 69.804680 33.300781 21.992184 63.505863 3.408203 -46.318653 -16.835938 -12.783204 3.271485 -2.303976 12.610314 4.774547 38.412437 -1.004206 -2.519123 -37.328423 12.719943 2.510661 -41.796658 -15.283226 -7.850403 51.588970 -0.179544 2.840920 -13.127617 5.415838 8.068008 
3.959893 41.894680 64.882233 -2.988281 3.867188 -162.059891 15.332031 4.824219 -6.083163 -10.810547 1.113281 -6.318170 -8.720703 1.552734 -4.824218 21.503906 2.656250 -4.882360 -1.660156 12.031307 0.496011 -89.707031 -33.662106 58.490681 -60.976563 -3.437500 -51.571678 22.373049 -2.275391 -1.064841 4.912109 -3.085938 0.088416 67.822266 40.664063 27.236328 64.462891 3.593750 -51.318359 -18.886719 -13.837891 4.023437 0.321461 12.452812 5.770560 37.910820 -0.992448 -2.334164 -38.754597 13.564266 3.653604 -42.120506 -14.039429 -6.477763 54.040176 -0.185508 3.150429 -13.660090 5.101658 8.141752 
3.781238 41.426720 64.243233 -2.119128 3.505838 -164.354767 14.804686 5.029297 -6.757813 -11.162109 0.761719 -7.031235 -5.800781 2.480469 -2.802312 21.318361 1.250000 -3.310334 -1.181641 13.964845 0.585938 -89.863281 -36.250004 54.257813 -65.341797 -3.505859 -49.511719 24.375000 -4.531250 -1.983192 3.681640 -5.371094 0.166016 63.603516 49.394535 29.326168 66.708984 3.486328 -52.763672 -18.779297 -13.007813 3.828124 2.907624 11.790056 6.695572 38.601616 -0.826340 -2.460634 -39.982468 14.962282 5.310583 -43.741478 -12.487677 -3.789830 58.263836 -0.546763 3.131666 -13.211835 5.293027 8.021501 
3.601858 40.804386 63.545403 -1.416016 3.164063 -167.167435 14.619141 5.224609 -7.431641 -10.644531 0.585938 -7.724608 -5.126953 2.617188 -1.591351 22.187500 -0.166016 -0.302763 -0.507813 15.019531 0.595703 -91.601563 -42.099609 46.933590 -67.851563 -3.349610 -47.490231 22.675781 -5.810547 -2.412109 1.591797 -8.173827 0.244141 53.906250 60.214844 24.529959 70.712891 3.544922 -50.147087 -19.746092 -10.761719 3.367318 4.711812 11.212744 8.478972 40.543362 -0.817031 -2.574581 -40.929146 16.127100 6.491206 -46.717987 -11.084036 -0.699746 63.175686 -0.884155 2.973028 -12.712520 5.641329 8.367906 
3.442529 40.039635 62.756611 -1.054687 2.460938 -169.276917 14.970702 5.595703 -8.046875 -10.830078 -0.468750 -8.437578 -5.000000 3.203125 0.469296 23.066406 -1.396484 1.650398 -0.585938 16.953125 0.820313 -93.828125 -49.365238 40.166016 -68.525391 -3.281250 -40.702568 23.076172 -9.912109 -4.101563 -0.263672 -10.996094 0.478516 36.406250 67.304688 4.286353 76.728516 3.535156 -46.103516 -20.048828 -9.140626 2.812500 6.110503 10.349129 10.020870 42.825294 -0.963913 -2.735479 -42.544739 16.838835 7.979330 -50.199490 -9.842854 1.307074 67.365349 -1.424764 3.342179 -12.678477 6.429027 8.355073 
3.330432 39.201077 61.870949 -0.878906 1.933594 -170.859375 15.839842 5.751953 -8.554689 -10.654298 -0.644531 -9.306642 -6.621094 2.714844 2.470703 23.593750 -1.748047 3.417969 0.576172 18.203125 0.768434 -97.812500 -60.498051 37.031250 -68.212891 -3.056641 -33.144009 23.935545 -13.212891 -5.517578 -2.597656 -14.023438 0.585938 12.880860 68.720703 -27.871759 83.886719 3.466797 -42.871094 -18.798828 -7.998046 2.187500 7.468019 9.948857 11.070486 44.932804 -0.505474 -2.832741 -44.125408 17.535656 9.460997 -53.831223 -9.491455 3.454382 69.113113 -1.600541 3.472430 -13.219610 5.814822 8.477152 
3.279456 38.363609 60.852528 -0.878906 1.406250 -171.386475 16.718750 6.064454 -9.012640 -10.478516 -0.644531 -9.833984 -8.916017 1.474609 4.023438 24.121094 -1.054688 4.833984 3.662110 19.882814 0.885351 -106.884766 -73.300781 43.223064 -67.626953 -2.744141 -25.956564 24.599609 -13.730469 -5.849609 -6.572266 -15.937500 0.744869 -2.832031 67.119141 -54.160152 91.162109 3.242188 -38.682194 -18.261719 -5.927735 1.533203 8.823732 9.226146 10.468019 46.000599 -0.991368 -2.557102 -45.583553 18.142582 10.822640 -57.549618 -9.501563 5.235390 68.595619 -1.405935 3.389231 -12.672384 4.387680 7.691868 
3.330432 37.598495 59.661972 -1.416016 1.230469 -171.035156 17.597656 6.337582 -9.296340 -10.644531 -0.292969 -10.361328 -11.386719 -0.195313 4.912076 24.833986 0.175781 5.556668 7.705078 22.265627 1.138878 27.558611 -95.527344 -90.624954 -66.679688 -2.539062 -19.003904 24.531250 -13.447266 -5.693359 -8.427733 -16.201172 0.735147 -6.640625 62.675781 -66.954216 97.109375 3.203125 -35.957581 -20.302736 -1.171875 0.214844 10.658430 9.460379 10.525044 45.812397 -0.678834 -2.605970 -46.327976 18.198153 11.090187 -60.968578 -10.380624 7.088556 65.602547 -1.415163 3.449918 -11.519543 4.973533 7.906546 
3.492418 36.972897 58.300858 -2.470703 1.406260 -169.638519 17.958984 6.777344 -9.531251 -11.171874 0.234375 -10.556601 -13.330078 -1.748047 5.263374 25.361328 1.054688 5.566389 12.070313 23.974611 1.236266 -52.060547 -100.732422 -9.033031 -65.058594 -2.177734 -10.585938 24.990232 -11.835938 -5.185546 -8.486329 -15.312500 0.654297 -3.203125 59.189457 -75.079498 103.203125 3.300781 -37.275955 -19.277344 -2.001953 0.448879 11.549706 10.350325 9.621156 45.646469 -0.681447 -2.598560 -46.173416 18.615280 11.430357 -63.205902 -11.259872 9.521608 60.870289 -1.039922 3.333892 -8.397314 8.462081 8.147520 
3.834749 36.485008 56.785126 -3.691406 2.109375 -167.343384 17.958984 7.041015 -9.813256 -12.216798 1.474609 -10.937499 -14.199218 -3.046875 4.696746 25.888672 1.396484 5.049066 15.742188 25.585936 1.255548 -56.542965 -108.564453 -2.138165 -62.978516 -1.738281 -4.433594 25.449219 -12.363282 -5.517578 -7.050782 -13.457031 0.576172 4.951172 57.275391 -76.699219 107.041016 3.359375 -38.731041 -20.273438 0.068359 -0.273438 12.066274 12.087589 7.266634 44.932152 -0.495970 -2.848376 -45.756153 19.137426 12.076358 -64.824951 -12.666328 12.080042 56.300400 -0.666725 3.539005 -5.536663 14.595510 8.260715 
